<mxfile host="Electron" agent="Mozilla/5.0 (Macintosh; Intel Mac OS X 10_15_7) AppleWebKit/537.36 (KHTML, like Gecko) draw.io/27.0.2 Chrome/134.0.6998.205 Electron/35.3.0 Safari/537.36" version="27.0.2">
  <diagram id="C5RBs43oDa-KdzZeNtuy" name="Page-1">
    <mxGraphModel dx="1234" dy="786" grid="1" gridSize="10" guides="1" tooltips="1" connect="1" arrows="1" fold="1" page="1" pageScale="1" pageWidth="827" pageHeight="1169" math="0" shadow="0">
      <root>
        <mxCell id="WIyWlLk6GJQsqaUBKTNV-0" />
        <mxCell id="WIyWlLk6GJQsqaUBKTNV-1" parent="WIyWlLk6GJQsqaUBKTNV-0" />
        <mxCell id="GvMWugbNL8Nnu87U0aRX-3" style="edgeStyle=orthogonalEdgeStyle;rounded=0;orthogonalLoop=1;jettySize=auto;html=1;" edge="1" parent="WIyWlLk6GJQsqaUBKTNV-1" source="GvMWugbNL8Nnu87U0aRX-0" target="GvMWugbNL8Nnu87U0aRX-2">
          <mxGeometry relative="1" as="geometry" />
        </mxCell>
        <mxCell id="GvMWugbNL8Nnu87U0aRX-0" value="begin" style="rounded=1;whiteSpace=wrap;html=1;" vertex="1" parent="WIyWlLk6GJQsqaUBKTNV-1">
          <mxGeometry x="354" y="40" width="120" height="40" as="geometry" />
        </mxCell>
        <mxCell id="GvMWugbNL8Nnu87U0aRX-6" style="edgeStyle=orthogonalEdgeStyle;rounded=0;orthogonalLoop=1;jettySize=auto;html=1;entryX=0.5;entryY=0;entryDx=0;entryDy=0;" edge="1" parent="WIyWlLk6GJQsqaUBKTNV-1" source="GvMWugbNL8Nnu87U0aRX-2" target="GvMWugbNL8Nnu87U0aRX-5">
          <mxGeometry relative="1" as="geometry" />
        </mxCell>
        <mxCell id="GvMWugbNL8Nnu87U0aRX-2" value="operatorsCount = 0&lt;div&gt;variables.clear()&lt;/div&gt;" style="rounded=0;whiteSpace=wrap;html=1;" vertex="1" parent="WIyWlLk6GJQsqaUBKTNV-1">
          <mxGeometry x="354" y="110" width="120" height="60" as="geometry" />
        </mxCell>
        <mxCell id="GvMWugbNL8Nnu87U0aRX-8" style="edgeStyle=orthogonalEdgeStyle;rounded=0;orthogonalLoop=1;jettySize=auto;html=1;" edge="1" parent="WIyWlLk6GJQsqaUBKTNV-1" source="GvMWugbNL8Nnu87U0aRX-5" target="GvMWugbNL8Nnu87U0aRX-7">
          <mxGeometry relative="1" as="geometry" />
        </mxCell>
        <mxCell id="GvMWugbNL8Nnu87U0aRX-5" value="do&lt;div&gt;(int i = 0,i++)&lt;/div&gt;" style="shape=hexagon;perimeter=hexagonPerimeter2;whiteSpace=wrap;html=1;fixedSize=1;" vertex="1" parent="WIyWlLk6GJQsqaUBKTNV-1">
          <mxGeometry x="321" y="200" width="186" height="70" as="geometry" />
        </mxCell>
        <mxCell id="GvMWugbNL8Nnu87U0aRX-10" style="edgeStyle=orthogonalEdgeStyle;rounded=0;orthogonalLoop=1;jettySize=auto;html=1;entryX=1;entryY=0.5;entryDx=0;entryDy=0;" edge="1" parent="WIyWlLk6GJQsqaUBKTNV-1" source="GvMWugbNL8Nnu87U0aRX-7" target="GvMWugbNL8Nnu87U0aRX-9">
          <mxGeometry relative="1" as="geometry" />
        </mxCell>
        <mxCell id="GvMWugbNL8Nnu87U0aRX-14" style="edgeStyle=orthogonalEdgeStyle;rounded=0;orthogonalLoop=1;jettySize=auto;html=1;entryX=0;entryY=0.5;entryDx=0;entryDy=0;" edge="1" parent="WIyWlLk6GJQsqaUBKTNV-1" source="GvMWugbNL8Nnu87U0aRX-7" target="GvMWugbNL8Nnu87U0aRX-13">
          <mxGeometry relative="1" as="geometry" />
        </mxCell>
        <mxCell id="GvMWugbNL8Nnu87U0aRX-7" value="ALL_OPERATORS.&lt;div&gt;contain(processedFormula[i])&lt;/div&gt;" style="rhombus;whiteSpace=wrap;html=1;" vertex="1" parent="WIyWlLk6GJQsqaUBKTNV-1">
          <mxGeometry x="314" y="320" width="200" height="100" as="geometry" />
        </mxCell>
        <mxCell id="GvMWugbNL8Nnu87U0aRX-28" style="edgeStyle=orthogonalEdgeStyle;rounded=0;orthogonalLoop=1;jettySize=auto;html=1;entryX=0.5;entryY=0;entryDx=0;entryDy=0;" edge="1" parent="WIyWlLk6GJQsqaUBKTNV-1" source="GvMWugbNL8Nnu87U0aRX-9" target="GvMWugbNL8Nnu87U0aRX-27">
          <mxGeometry relative="1" as="geometry" />
        </mxCell>
        <mxCell id="GvMWugbNL8Nnu87U0aRX-9" value="operatorsCount++" style="rounded=0;whiteSpace=wrap;html=1;" vertex="1" parent="WIyWlLk6GJQsqaUBKTNV-1">
          <mxGeometry x="120" y="340" width="120" height="60" as="geometry" />
        </mxCell>
        <mxCell id="GvMWugbNL8Nnu87U0aRX-11" value="да" style="text;html=1;align=center;verticalAlign=middle;resizable=0;points=[];autosize=1;strokeColor=none;fillColor=none;" vertex="1" parent="WIyWlLk6GJQsqaUBKTNV-1">
          <mxGeometry x="290" y="340" width="40" height="30" as="geometry" />
        </mxCell>
        <mxCell id="GvMWugbNL8Nnu87U0aRX-31" style="edgeStyle=orthogonalEdgeStyle;rounded=0;orthogonalLoop=1;jettySize=auto;html=1;entryX=0.5;entryY=1;entryDx=0;entryDy=0;" edge="1" parent="WIyWlLk6GJQsqaUBKTNV-1" source="GvMWugbNL8Nnu87U0aRX-12" target="GvMWugbNL8Nnu87U0aRX-29">
          <mxGeometry relative="1" as="geometry" />
        </mxCell>
        <mxCell id="GvMWugbNL8Nnu87U0aRX-12" value="variables.add(c)" style="rounded=0;whiteSpace=wrap;html=1;" vertex="1" parent="WIyWlLk6GJQsqaUBKTNV-1">
          <mxGeometry x="595" y="470" width="120" height="60" as="geometry" />
        </mxCell>
        <mxCell id="GvMWugbNL8Nnu87U0aRX-16" style="edgeStyle=orthogonalEdgeStyle;rounded=0;orthogonalLoop=1;jettySize=auto;html=1;entryX=0.5;entryY=0;entryDx=0;entryDy=0;" edge="1" parent="WIyWlLk6GJQsqaUBKTNV-1" source="GvMWugbNL8Nnu87U0aRX-13" target="GvMWugbNL8Nnu87U0aRX-12">
          <mxGeometry relative="1" as="geometry" />
        </mxCell>
        <mxCell id="GvMWugbNL8Nnu87U0aRX-37" style="edgeStyle=orthogonalEdgeStyle;rounded=0;orthogonalLoop=1;jettySize=auto;html=1;entryX=0;entryY=0.5;entryDx=0;entryDy=0;" edge="1" parent="WIyWlLk6GJQsqaUBKTNV-1" source="GvMWugbNL8Nnu87U0aRX-13" target="GvMWugbNL8Nnu87U0aRX-29">
          <mxGeometry relative="1" as="geometry" />
        </mxCell>
        <mxCell id="GvMWugbNL8Nnu87U0aRX-13" value="LITERALS.contains(c)" style="rhombus;whiteSpace=wrap;html=1;" vertex="1" parent="WIyWlLk6GJQsqaUBKTNV-1">
          <mxGeometry x="580" y="325" width="150" height="90" as="geometry" />
        </mxCell>
        <mxCell id="GvMWugbNL8Nnu87U0aRX-15" value="нет" style="text;html=1;align=center;verticalAlign=middle;resizable=0;points=[];autosize=1;strokeColor=none;fillColor=none;" vertex="1" parent="WIyWlLk6GJQsqaUBKTNV-1">
          <mxGeometry x="507" y="340" width="40" height="30" as="geometry" />
        </mxCell>
        <mxCell id="GvMWugbNL8Nnu87U0aRX-17" value="да" style="text;html=1;align=center;verticalAlign=middle;resizable=0;points=[];autosize=1;strokeColor=none;fillColor=none;" vertex="1" parent="WIyWlLk6GJQsqaUBKTNV-1">
          <mxGeometry x="610" y="400" width="40" height="30" as="geometry" />
        </mxCell>
        <mxCell id="GvMWugbNL8Nnu87U0aRX-19" value="нет" style="text;html=1;align=center;verticalAlign=middle;resizable=0;points=[];autosize=1;strokeColor=none;fillColor=none;" vertex="1" parent="WIyWlLk6GJQsqaUBKTNV-1">
          <mxGeometry x="715" y="340" width="40" height="30" as="geometry" />
        </mxCell>
        <mxCell id="GvMWugbNL8Nnu87U0aRX-27" value="1" style="ellipse;whiteSpace=wrap;html=1;aspect=fixed;" vertex="1" parent="WIyWlLk6GJQsqaUBKTNV-1">
          <mxGeometry x="160" y="430" width="40" height="40" as="geometry" />
        </mxCell>
        <mxCell id="GvMWugbNL8Nnu87U0aRX-29" value="1" style="ellipse;whiteSpace=wrap;html=1;aspect=fixed;" vertex="1" parent="WIyWlLk6GJQsqaUBKTNV-1">
          <mxGeometry x="770" y="350" width="40" height="40" as="geometry" />
        </mxCell>
        <mxCell id="GvMWugbNL8Nnu87U0aRX-38" style="edgeStyle=orthogonalEdgeStyle;rounded=0;orthogonalLoop=1;jettySize=auto;html=1;entryX=0.5;entryY=0;entryDx=0;entryDy=0;" edge="1" parent="WIyWlLk6GJQsqaUBKTNV-1" source="GvMWugbNL8Nnu87U0aRX-32" target="GvMWugbNL8Nnu87U0aRX-36">
          <mxGeometry relative="1" as="geometry" />
        </mxCell>
        <mxCell id="GvMWugbNL8Nnu87U0aRX-32" value="1" style="ellipse;whiteSpace=wrap;html=1;aspect=fixed;" vertex="1" parent="WIyWlLk6GJQsqaUBKTNV-1">
          <mxGeometry x="401" y="480" width="40" height="40" as="geometry" />
        </mxCell>
        <mxCell id="GvMWugbNL8Nnu87U0aRX-39" style="edgeStyle=orthogonalEdgeStyle;rounded=0;orthogonalLoop=1;jettySize=auto;html=1;entryX=0;entryY=0.5;entryDx=0;entryDy=0;exitX=0;exitY=0.5;exitDx=0;exitDy=0;" edge="1" parent="WIyWlLk6GJQsqaUBKTNV-1" source="GvMWugbNL8Nnu87U0aRX-36" target="GvMWugbNL8Nnu87U0aRX-5">
          <mxGeometry relative="1" as="geometry">
            <Array as="points">
              <mxPoint x="314" y="600" />
              <mxPoint x="70" y="600" />
              <mxPoint x="70" y="235" />
            </Array>
          </mxGeometry>
        </mxCell>
        <mxCell id="GvMWugbNL8Nnu87U0aRX-43" style="edgeStyle=orthogonalEdgeStyle;rounded=0;orthogonalLoop=1;jettySize=auto;html=1;" edge="1" parent="WIyWlLk6GJQsqaUBKTNV-1" source="GvMWugbNL8Nnu87U0aRX-36" target="GvMWugbNL8Nnu87U0aRX-42">
          <mxGeometry relative="1" as="geometry" />
        </mxCell>
        <mxCell id="GvMWugbNL8Nnu87U0aRX-36" value="if (i &amp;lt; processedFormula.size())" style="rhombus;whiteSpace=wrap;html=1;" vertex="1" parent="WIyWlLk6GJQsqaUBKTNV-1">
          <mxGeometry x="321" y="550" width="200" height="100" as="geometry" />
        </mxCell>
        <mxCell id="GvMWugbNL8Nnu87U0aRX-40" value="да" style="text;html=1;align=center;verticalAlign=middle;resizable=0;points=[];autosize=1;strokeColor=none;fillColor=none;" vertex="1" parent="WIyWlLk6GJQsqaUBKTNV-1">
          <mxGeometry x="290" y="570" width="40" height="30" as="geometry" />
        </mxCell>
        <mxCell id="GvMWugbNL8Nnu87U0aRX-41" value="нет" style="text;html=1;align=center;verticalAlign=middle;resizable=0;points=[];autosize=1;strokeColor=none;fillColor=none;" vertex="1" parent="WIyWlLk6GJQsqaUBKTNV-1">
          <mxGeometry x="414" y="640" width="40" height="30" as="geometry" />
        </mxCell>
        <mxCell id="GvMWugbNL8Nnu87U0aRX-45" style="edgeStyle=orthogonalEdgeStyle;rounded=0;orthogonalLoop=1;jettySize=auto;html=1;" edge="1" parent="WIyWlLk6GJQsqaUBKTNV-1" source="GvMWugbNL8Nnu87U0aRX-42" target="GvMWugbNL8Nnu87U0aRX-44">
          <mxGeometry relative="1" as="geometry" />
        </mxCell>
        <mxCell id="GvMWugbNL8Nnu87U0aRX-42" value="return operatorsCount&lt;div&gt;+ variables.size()&lt;/div&gt;" style="rounded=0;whiteSpace=wrap;html=1;" vertex="1" parent="WIyWlLk6GJQsqaUBKTNV-1">
          <mxGeometry x="361" y="690" width="120" height="60" as="geometry" />
        </mxCell>
        <mxCell id="GvMWugbNL8Nnu87U0aRX-44" value="end" style="rounded=1;whiteSpace=wrap;html=1;" vertex="1" parent="WIyWlLk6GJQsqaUBKTNV-1">
          <mxGeometry x="361" y="790" width="120" height="40" as="geometry" />
        </mxCell>
      </root>
    </mxGraphModel>
  </diagram>
</mxfile>
